<svg width="50" height="50" viewBox="0 0 50 50" fill="none" xmlns="http://www.w3.org/2000/svg">
<path d="M45.3125 12.5H34.375V7.8125L32.8125 6.25H17.1875L15.625 7.8125V12.5H4.6875L3.125 14.0625V39.0625L4.6875 40.625H45.3125L46.875 39.0625V14.0625L45.3125 12.5ZM18.75 9.375H31.25V12.5H18.75V9.375ZM43.75 15.625V18L31.25 25V23.4375L29.7188 21.875H20.3438L18.75 23.4375V25L6.25 17.8438V15.625H43.75ZM28.125 25V28.125H21.875V25H28.125ZM6.25 37.5V21.4375L18.75 28.5937V29.6875L20.3125 31.25H29.6875L31.25 29.6875V28.7187L43.75 21.5938V37.5H6.25Z" fill="#C5C5C5"/>
</svg>
