<svg width="50" height="50" viewBox="0 0 50 50" fill="none" xmlns="http://www.w3.org/2000/svg">
<path fill-rule="evenodd" clip-rule="evenodd" d="M11.7188 14H9.5L6.25 10.7188L8.46875 8.53125L10.625 10.6562L15.0312 6.25L17.25 8.46875L11.7188 14ZM21.8437 9.375H46.8437V12.5H21.8437V9.375ZM21.8437 18.75H46.8437V21.875H21.8437V18.75ZM46.8437 28.125H21.8437V31.25H46.8437V28.125ZM21.8437 37.5H46.8437V40.625H21.8437V37.5ZM9.5 23.375H11.7188L17.25 17.8438L15.0312 15.6563L10.625 20.0625L8.46875 17.9063L6.25 20.125L9.5 23.375ZM11.7188 32.7813H9.5L6.25 29.5313L8.46875 27.3125L10.625 29.4688L15.0312 25.0313L17.25 27.25L11.7188 32.7813ZM9.5 42.1876H11.7188L17.25 36.6563L15.0312 34.4376L10.625 38.8751L8.46875 36.7188L6.25 38.9063L9.5 42.1876Z" fill="white"/>
</svg>
