<svg viewBox="0 0 50 50" fill="none" xmlns="http://www.w3.org/2000/svg">
<path d="M25 45.8333C13.494 45.8333 4.16663 36.5059 4.16663 25C4.16663 13.4941 13.494 4.16667 25 4.16667C36.5059 4.16667 45.8333 13.4941 45.8333 25C45.8207 36.5007 36.5007 45.8207 25 45.8333ZM25 8.33334C15.8445 8.33566 8.40509 15.7226 8.33796 24.8778C8.27083 34.033 15.6012 41.5283 24.7556 41.6648C33.91 41.8014 41.4606 34.5281 41.6666 25.375V29.0896V25C41.6563 15.7995 34.2004 8.34367 25 8.33334ZM28.0208 35.2083L17.7083 24.8958L28.0208 14.5833L30.9666 17.5292L23.6 24.8958L30.9645 32.2625L28.0229 35.2083H28.0208Z" fill="#F7F7F7"/>
</svg>
