<svg viewBox="0 0 50 50" fill="none" xmlns="http://www.w3.org/2000/svg">
<path d="M25 45.8333C13.4993 45.8207 4.17926 36.5007 4.16663 25V24.5833C4.39565 13.1344 13.822 4.01657 25.2722 4.1685C36.7224 4.32042 45.9035 13.6852 45.8287 25.1361C45.7539 36.5871 36.4511 45.831 25 45.8333ZM25 8.33333C15.7952 8.33333 8.33329 15.7952 8.33329 25C8.33329 34.2047 15.7952 41.6667 25 41.6667C34.2047 41.6667 41.6666 34.2047 41.6666 25C41.6563 15.7995 34.2004 8.34366 25 8.33333ZM21.9791 35.4167L19.0333 32.4687L26.3979 25.1042L19.0333 17.7396L21.9791 14.7917L32.2916 25.1042L21.9812 35.4167H21.9791Z" fill="#F7F7F7"/>
</svg>
