<?xml version="1.0" encoding="UTF-8"?>
<svg id="Capa_1" data-name="Capa 1" xmlns="http://www.w3.org/2000/svg" viewBox="0 0 724.13 472.02">
  <defs>
    <style>
      .cls-1 {
        fill: #280aff;
      }

      .cls-2 {
        fill: #fff;
        stroke: #231f20;
        stroke-width: 3.02px;
      }

      .cls-2, .cls-3, .cls-4, .cls-5 {
        stroke-miterlimit: 10;
      }

      .cls-3 {
        stroke: #42004e;
      }

      .cls-3, .cls-4, .cls-5 {
        fill: none;
        stroke-linecap: round;
        stroke-width: 69.49px;
      }

      .cls-4 {
        stroke: #280aff;
      }

      .cls-5 {
        stroke: #6e007a;
      }
    </style>
  </defs>
  <g>
    <polyline class="cls-4" points="249.53 437.28 149.45 339.77 49.38 242.27 147.86 143.15 246.35 44.04"/>
    <polyline class="cls-5" points="296.25 433.54 196.17 336.03 96.1 238.52 194.59 139.41 293.07 40.3"/>
    <polyline class="cls-3" points="349.6 427.98 249.53 330.47 149.45 232.97 247.94 133.85 346.43 34.74"/>
  </g>
  <path class="cls-1" d="m674.97,75.1c7.31,7.62,10.97,17.53,10.97,29.71v248.64c0,11.58-3.36,20.72-10.06,27.42s-15.54,10.05-26.51,10.05-19.43-3.35-26.28-10.05c-6.86-6.7-10.29-15.84-10.29-27.42v-134.38l-52.1,95.98c-5.19,9.76-10.67,16.68-16.46,20.8-5.79,4.11-12.65,6.17-20.57,6.17s-14.78-2.06-20.57-6.17c-5.79-4.11-11.28-11.04-16.46-20.8l-51.65-93.24v131.63c0,11.28-3.43,20.34-10.29,27.2-6.86,6.86-15.77,10.28-26.74,10.28s-19.42-3.35-26.28-10.05c-6.86-6.7-10.28-15.84-10.28-27.42V104.81c0-12.18,3.73-22.09,11.2-29.71,7.46-7.61,16.98-11.43,28.57-11.43,8.23,0,15.69,2.36,22.39,7.08,6.7,4.73,12.34,11.5,16.91,20.34l84.1,158.14,83.64-158.14c9.44-18.28,22.24-27.42,38.39-27.42,11.58,0,21.03,3.81,28.34,11.43Z"/>
  <path class="cls-2" d="m711.65,72.36c7.31,7.62,10.97,17.53,10.97,29.71v248.64c0,11.58-3.36,20.72-10.06,27.42s-15.54,10.05-26.51,10.05-19.43-3.35-26.28-10.05c-6.86-6.7-10.29-15.84-10.29-27.42v-134.38l-52.1,95.98c-5.19,9.76-10.67,16.68-16.46,20.8-5.79,4.11-12.65,6.17-20.57,6.17s-14.78-2.06-20.57-6.17c-5.79-4.11-11.28-11.04-16.46-20.8l-51.65-93.24v131.63c0,11.28-3.43,20.34-10.29,27.2-6.86,6.86-15.77,10.28-26.74,10.28s-19.42-3.35-26.28-10.05c-6.86-6.7-10.29-15.84-10.29-27.42V102.07c0-12.18,3.73-22.09,11.2-29.71,7.46-7.61,16.98-11.43,28.57-11.43,8.23,0,15.69,2.36,22.39,7.08,6.7,4.73,12.34,11.5,16.91,20.34l84.1,158.14,83.64-158.14c9.44-18.28,22.24-27.42,38.39-27.42,11.58,0,21.03,3.81,28.34,11.43Z"/>
</svg>