<svg width="46" height="34" viewBox="0 0 46 34" fill="none" xmlns="http://www.w3.org/2000/svg">
<path d="M45.7493 9.395L23.5843 0.75H22.4143L0.249268 9.395V30H3.49927V13.75L11.0068 16.675C9.34838 19.0367 8.45243 21.8493 8.43927 24.735C8.40714 25.0918 8.40714 25.4507 8.43927 25.8075V26.165L9.34927 27.465L22.2843 33.25H23.6168L36.4218 27.3675L37.3318 26.0675V25.6775C37.3318 25.3525 37.3318 24.995 37.3318 24.6375C37.3134 21.7676 36.4299 18.97 34.7968 16.61L45.7493 12.3525V9.395ZM34.3093 24.605V24.8325L22.9993 30L11.6243 24.8C11.6091 24.7359 11.6091 24.6691 11.6243 24.605C11.642 22.1001 12.5003 19.6737 14.0618 17.715L22.4468 20.965H23.6168L31.9368 17.715C33.4839 19.6773 34.3202 22.1061 34.3093 24.605V24.605ZM22.9993 17.8125L5.18927 10.89L22.9993 4L40.8093 10.955L22.9993 17.8125Z" fill="#C5C5C5"/>
</svg>
